<svg width="150" height="87" viewBox="0 0 150 87" fill="none" xmlns="http://www.w3.org/2000/svg">
<path d="M0.9265 53.896H28.7025V78.088H49.3105V53.896H72.3505L76.7025 36.104H49.3105V12.808H28.7025V36.104H5.2785L0.9265 53.896ZM86.0395 79.88C94.2315 84.36 102.552 86.664 115.224 86.664C136.472 86.664 149.784 75.144 149.784 57.48C149.784 43.016 141.336 34.568 123.928 33.288L146.456 12.168L141.592 0.519997H93.3355V17.16H124.568L103.064 39.048L109.464 47.624C111.128 46.984 113.688 46.6 116.248 46.6C124.056 46.6 128.664 50.184 128.664 57.352C128.664 65.672 120.984 69.512 111.768 69.512C105.752 69.512 99.0955 68.36 92.0555 64.904L86.0395 79.88Z" fill="#E10037"/>
</svg>
