<svg width="76" height="68" viewBox="0 0 76 68" fill="none" xmlns="http://www.w3.org/2000/svg">
<path d="M74.7648 9.81565L64.7906 1.05023C64.4845 0.779556 64.0777 0.641912 63.6763 0.670363C63.2696 0.697277 62.8897 0.884135 62.6206 1.19095L26.4439 42.3659L13.5806 25.3403C13.3353 25.0158 12.9701 24.8012 12.5664 24.7459C12.1634 24.6859 11.7521 24.7951 11.4275 25.0419L0.832765 33.0453C0.155308 33.5574 0.0207389 34.5217 0.532869 35.1991L24.3508 66.7236C24.6291 67.0919 25.0597 67.3165 25.5211 67.3334C25.5396 67.3334 25.5588 67.3334 25.5773 67.3334C26.0186 67.3334 26.44 67.1442 26.733 66.8105L74.904 11.9857C75.4653 11.3482 75.403 10.3755 74.7648 9.81565Z" fill="#82D200"/>
</svg>
