<svg width="68" height="68" viewBox="0 0 68 68" fill="none" xmlns="http://www.w3.org/2000/svg">
<path d="M44.3179 34.0004L66.9247 11.3929C67.4674 10.8502 67.4674 9.9705 66.9247 9.4278L58.5728 1.07388C58.3123 0.813293 57.9579 0.666672 57.5903 0.666672C57.222 0.666672 56.8683 0.813293 56.6077 1.07388L33.9996 23.682L11.3914 1.07388C10.8703 0.55271 9.94748 0.55271 9.42631 1.07388L1.07378 9.4278C0.531071 9.9705 0.531071 10.8502 1.07378 11.3929L23.6812 34.0004L1.07378 56.6078C0.531071 57.1505 0.531071 58.0302 1.07378 58.5729L9.42631 66.9262C9.68689 67.1867 10.0406 67.3334 10.4089 67.3334C10.7772 67.3334 11.1309 67.1867 11.3914 66.9262L33.9996 44.318L56.6077 66.9262C56.8683 67.1867 57.222 67.3334 57.5903 67.3334C57.9579 67.3334 58.3123 67.1867 58.5728 66.9262L66.9254 58.5729C67.4681 58.0302 67.4681 57.1498 66.9254 56.6078L44.3179 34.0004Z" fill="#E10037"/>
</svg>
