<svg width="351" height="110" viewBox="0 0 351 110" fill="none" xmlns="http://www.w3.org/2000/svg">
<path d="M28.8093 95.1822H41.8293V106.522H51.4893V95.1822H62.2893L64.3293 86.8422H51.4893V75.9222H41.8293V86.8422H30.8493L28.8093 95.1822ZM82.986 109.762H93.306V68.7222L70.206 79.2222L71.826 84.9222L82.986 82.1022V109.762Z" fill="#B41432"/>
<path d="M273.309 95.1822H286.329V106.522H295.989V95.1822H306.789L308.829 86.8422H295.989V75.9222H286.329V86.8422H275.349L273.309 95.1822ZM313.746 102.022H331.326V109.762H340.026V102.022H344.706V95.1222L340.026 95.3022V69.5622H332.466L312.546 97.4622L313.746 102.022ZM321.066 96.2022L331.326 80.9622V95.7822L321.066 96.2022Z" fill="#FFD700"/>
<path d="M139.214 38.13H158.744V55.14H173.234V38.13H189.434L192.494 25.62H173.234V9.24H158.744V25.62H142.274L139.214 38.13ZM199.059 56.4C204.819 59.55 210.669 61.17 219.579 61.17C234.519 61.17 243.879 53.07 243.879 40.65C243.879 30.48 237.939 24.54 225.699 23.64L241.539 8.79L238.119 0.599998H204.189V12.3H226.149L211.029 27.69L215.529 33.72C216.699 33.27 218.499 33 220.299 33C225.789 33 229.029 35.52 229.029 40.56C229.029 46.41 223.629 49.11 217.149 49.11C212.919 49.11 208.239 48.3 203.289 45.87L199.059 56.4Z" fill="#E10037"/>
</svg>
