<svg width="676" height="796" viewBox="0 0 676 796" fill="none" xmlns="http://www.w3.org/2000/svg">
<mask id="mask0_214_519" style="mask-type:luminance" maskUnits="userSpaceOnUse" x="0" y="0" width="676" height="796">
<path d="M675.641 0H0V795.329H675.641V0Z" fill="white"/>
</mask>
<g mask="url(#mask0_214_519)">
<path d="M648.878 498.817C640.289 492.404 630.86 487.2 620.854 483.354C585.121 469.455 551.709 466.973 518.688 475.76C516.657 476.196 514.588 476.428 512.511 476.451L510.58 476.559C513.194 471.517 515.758 466.648 518.267 461.888C524.622 449.838 530.622 438.46 536.05 426.816L543.965 409.879C575.457 342.473 608.025 272.77 632.678 201.075C639.707 180.64 642.648 163.374 641.684 148.286C640.448 129.044 631.137 113.693 616.119 106.176C600.86 98.5355 581.886 100.42 565.35 111.215C556.57 116.312 548.729 122.871 542.162 130.611L536.938 137.503C520.309 158.551 504.967 180.584 490.994 203.48C476.559 228.258 463.282 254.238 450.456 279.361C444.279 291.445 438.101 303.53 431.781 315.533C430.843 317.039 429.685 318.396 428.345 319.56C428.168 319.737 427.982 319.91 427.805 320.084C400.366 281.862 382.385 277.639 335.488 298.124C327.095 275.454 309.955 261.686 284.524 257.177C259.846 252.798 237.871 259.307 217.409 277.063C216.988 276.631 216.603 276.245 216.251 275.885C215.321 275.024 214.47 274.081 213.707 273.068C198.684 251.061 178.284 238.278 156.265 237.093C134.769 235.957 113.87 246.03 97.2642 265.5C83.6313 281.797 72.0271 299.687 62.703 318.779C37.8357 368.584 24.2794 423.071 12.3147 471.131C4.06543 505.403 1.16614 540.741 3.72031 575.898C7.10239 631.263 30.5196 679.704 73.3172 719.904C125.681 769.069 187.287 793.904 256.728 793.904C264.257 793.904 271.878 793.61 279.595 793.022C312.983 790.487 351.568 784.422 384.536 758.663C399.485 746.975 414.84 735.275 429.685 723.963C455.108 704.593 481.389 684.581 506.515 663.945C537.702 638.769 573.446 619.834 611.801 608.181C624.666 604.551 636.901 598.957 648.066 591.604C655.46 586.463 661.537 579.643 665.784 571.701C670.037 563.759 672.348 554.922 672.525 545.914C672.589 536.753 670.478 527.707 666.366 519.522C662.254 511.333 656.26 504.237 648.878 498.817ZM37.689 549.007C38.7004 541.451 39.5838 533.865 40.4679 526.283C42.3003 507.858 45.0704 489.543 48.7683 471.401C60.656 418.002 74.2119 375.653 91.4348 338.083C100.913 317.203 114.667 298.543 131.808 283.31C141.958 274.318 152.416 270.847 161.269 273.542C170.203 276.268 177.025 285.124 180.477 298.456C182.203 305.847 183.418 313.348 184.113 320.907C184.445 323.78 184.774 326.652 185.164 329.513C186.287 337.864 188.877 346.716 199.583 349.044C209.165 351.121 216.572 346.905 222.201 336.137C223.938 332.821 225.625 329.47 227.304 326.099C230.586 319.563 233.98 312.807 237.729 306.455C240.619 301.527 244.512 297.262 249.157 293.936C253.802 290.61 259.096 288.299 264.692 287.151C276.839 284.325 286.912 285.607 293.815 290.897C300.575 296.058 304.389 305.135 304.837 317.15C304.929 324.507 304.502 331.86 303.559 339.157C303.304 341.593 303.046 344.025 302.826 346.454C302.641 348.519 302.258 350.558 301.853 352.716C301.342 355.175 300.977 357.661 300.764 360.163C300.397 364.085 301.437 368.009 303.697 371.235C305.956 374.461 309.289 376.778 313.1 377.773C316.911 378.768 320.951 378.375 324.5 376.666C328.048 374.957 330.871 372.041 332.468 368.441C333.858 365.318 335.07 362.063 336.244 358.916C338.074 353.48 340.415 348.228 343.236 343.234C348.125 334.256 354.58 326.225 362.297 319.521C364.738 317.403 367.664 315.916 370.814 315.193C373.964 314.468 377.245 314.53 380.366 315.37C383.344 316.45 386.009 318.245 388.131 320.597C390.254 322.949 391.764 325.787 392.532 328.86C395.297 339.041 396.988 349.484 397.578 360.017C397.86 363.105 398.142 366.163 398.474 369.21C398.628 371.596 398.54 373.993 398.2 376.36C397.54 379.977 397.682 383.696 398.628 387.251C400.802 393.459 405.686 400.895 411.288 402.555C416.89 404.215 424.542 400.211 430.021 396.571C432.99 394.084 435.214 390.822 436.453 387.15C436.912 386.135 437.368 385.131 437.842 384.185C446.29 367.563 454.699 350.923 463.077 334.265C481.404 297.915 500.353 260.327 519.53 223.638C530.58 202.701 542.918 182.47 556.478 163.061C563.721 153.108 572.542 144.403 582.588 137.286C589.06 132.503 595.59 131.137 600.495 133.518C605.537 135.963 608.578 142.159 608.837 150.506C608.86 159.484 607.207 168.387 603.966 176.759C601.466 183.627 598.984 190.508 596.525 197.403C586.897 224.235 576.94 251.98 565.118 278.311C543.884 325.571 521.561 373.287 499.967 419.434C487.23 446.649 474.544 473.883 461.903 501.137C457.475 509.484 454.827 518.661 454.124 528.085C454.069 534.687 459.946 542.872 465.421 546.667C471.984 551.215 480.582 549.111 487.35 541.335C488.809 539.66 490.091 537.861 491.334 536.112C492.373 534.653 493.408 533.197 494.542 531.827C507.789 515.823 532.077 505.055 559.512 503.025C586.051 501.06 610.666 507.766 625.372 520.962C632.654 527.525 636.125 533.977 635.407 539.68C634.689 545.382 630.001 550.459 621.507 554.868C616.348 557.528 610.913 559.601 605.295 561.045C559.682 572.878 517.557 595.498 476.512 630.198C451.657 651.216 424.812 673.663 396.914 695.445C380.568 708.187 362.785 719.751 345.588 730.916L344.948 731.328C327.485 742.675 306.787 744.351 286.768 745.969L284.896 746.116C199.958 753.028 129.849 723.522 76.5895 658.44C49.8532 625.757 38.0583 589.675 41.5293 551.181L41.7234 549.034L37.689 549.007Z" fill="#999999"/>
<path d="M201.277 174.355C205.066 174.267 208.757 173.129 211.938 171.069C219.28 166.49 226.269 161.367 232.845 155.741C284.089 112.705 342.492 89.459 406.477 86.6331C409.184 86.6519 411.883 86.9549 414.527 87.5366L415.133 87.6449C413.415 88.7066 411.763 89.7178 410.157 90.6949C404.033 94.4278 398.744 97.6443 393.756 101.424C385.334 107.771 379.574 116.311 379.084 123.176C378.92 124.545 379.058 125.933 379.49 127.243C379.92 128.552 380.633 129.751 381.578 130.754C388.891 138.14 399.748 139.175 411.361 133.597L417.488 130.658C437.04 121.869 455.938 111.688 474.034 100.193C484.539 93.1466 490.095 84.8225 490.106 76.1161C490.106 66.8119 483.894 57.7008 472.107 49.7628C453.695 37.3656 434.109 23.9798 408.601 6.36294C402.998 2.50213 394.54 -3.34312 386.71 5.13523C380.88 11.4476 381.624 18.8994 388.926 27.2812C394.011 33.111 399.439 38.744 405.184 44.7128C407.149 46.7513 409.168 48.8473 411.241 51.0248C411.098 51.0943 410.952 51.1549 410.806 51.2063C408.226 51.3801 405.64 51.5461 403.053 51.5461H403.03C334.284 51.5461 270.603 75.9384 208.324 126.11C201.237 132.223 194.851 139.105 189.286 146.63C183.306 154.217 183.376 162.607 189.48 169.07C190.97 170.725 192.787 172.05 194.819 172.96C196.851 173.87 199.051 174.345 201.277 174.355Z" fill="#999999"/>
</g>
</svg>
