<svg width="617" height="400" viewBox="0 0 617 400" fill="none" xmlns="http://www.w3.org/2000/svg">
<path d="M236.779 138.656C224.059 135.296 215.419 133.016 207.619 130.136C226.459 125.216 237.979 109.136 237.979 88.7362C237.979 64.2562 221.419 45.7762 195.139 45.7762C168.979 45.7762 152.299 64.3762 152.299 88.7362C152.299 113.096 169.099 131.816 195.139 131.816C195.979 131.816 196.459 131.816 197.419 131.696C205.699 141.536 215.539 149.576 225.019 157.256L236.779 138.656ZM195.139 115.856C182.059 115.856 174.019 106.016 174.019 88.7362C174.019 70.9762 182.059 61.6162 195.139 61.6162C207.979 61.6162 216.259 70.9762 216.259 88.7362C216.259 106.376 208.219 115.856 195.139 115.856ZM249.771 95.9362C249.771 119.936 263.571 131.816 288.051 131.816C312.651 131.816 326.571 117.416 326.571 96.7762V45.7762L305.331 49.6162V95.8162C305.331 108.176 299.931 116.336 288.411 116.336C276.771 116.336 271.011 109.016 271.011 95.2162V47.4562H249.771V95.9362ZM342.955 130.256H364.195V45.7762L342.955 49.6162V130.256ZM375.51 130.256H446.43V111.416L402.63 115.616L445.95 60.0562V47.4562H378.27V64.0162L421.83 62.0962L375.51 121.616V130.256Z" fill="white"/>
<path d="M60.8477 245.561H74.9277V209.001L89.9677 225.561L104.928 209.001V245.561H119.088V190.361H107.008L89.9677 208.041L72.9277 190.361H60.8477V245.561ZM162.152 232.281C158.472 234.921 155.192 236.201 150.952 236.201C146.072 236.201 141.272 234.361 140.472 228.121H168.312C168.712 226.281 168.952 224.601 168.952 222.201C168.952 210.681 160.952 204.361 148.952 204.361C135.992 204.361 126.872 213.241 126.872 225.641C126.872 238.361 135.032 246.601 149.752 246.601C157.912 246.601 163.112 244.201 167.992 240.841L162.152 232.281ZM140.232 223.081C140.872 217.161 144.232 213.961 148.712 213.961C152.792 213.961 155.832 216.841 156.152 221.241L140.232 223.081ZM139.352 197.881L144.312 202.681L162.312 191.481L153.992 183.081L139.352 197.881ZM215.747 246.601V185.241L202.067 187.481V205.481C200.307 204.921 197.987 204.361 194.627 204.361C183.827 204.361 173.747 211.081 173.747 225.801C173.747 240.441 182.467 246.601 193.027 246.601C197.347 246.601 200.467 245.641 203.667 243.961L215.747 246.601ZM202.067 237.961C200.147 238.521 198.947 238.761 197.107 238.761C191.107 238.761 187.427 234.441 187.427 225.721C187.427 216.121 191.827 212.681 199.107 212.681C199.907 212.681 200.867 212.761 202.067 212.841V237.961ZM224.731 245.561H238.491V204.361L224.731 206.281V245.561ZM231.611 200.681C235.611 200.681 239.051 197.561 239.051 193.081C239.051 188.521 235.611 185.561 231.611 185.561C227.451 185.561 224.251 188.521 224.251 193.081C224.251 197.561 227.451 200.681 231.611 200.681ZM252.51 217.721C256.11 215.401 260.59 214.041 264.59 214.041C268.35 214.041 270.19 216.601 270.19 220.761V222.361C264.19 222.441 256.59 222.681 249.15 223.641C246.43 226.681 245.31 229.801 245.31 233.641C245.31 241.561 250.75 246.601 259.47 246.601C263.79 246.601 268.51 245.161 271.87 243.001L283.87 246.601V220.601C283.87 210.521 277.79 204.361 266.35 204.361C258.35 204.361 252.75 205.961 246.91 209.801L252.51 217.721ZM270.19 237.721C269.07 238.201 267.31 238.521 265.07 238.521C260.27 238.521 258.51 235.081 258.51 232.041C258.51 230.921 258.75 229.881 258.91 229.321C263.15 228.441 265.71 227.961 270.19 227.321V237.721ZM292.231 245.561H305.911V215.161C308.231 214.521 310.951 214.041 313.031 214.041C316.391 214.041 317.431 214.841 317.431 219.081V245.561H331.271V221.001C331.271 219.081 331.031 216.841 330.551 215.001C333.431 214.361 335.991 213.881 338.151 213.881C341.751 213.881 342.791 215.001 342.791 219.161V245.561H356.471V219.801C356.471 210.281 353.031 204.361 343.671 204.361C337.911 204.361 332.311 206.361 328.551 208.521C326.471 206.121 323.591 204.361 319.031 204.361C313.431 204.361 308.471 206.121 304.631 208.121L292.231 204.361V245.561ZM398.558 232.281C394.878 234.921 391.598 236.201 387.358 236.201C382.478 236.201 377.678 234.361 376.878 228.121H404.718C405.118 226.281 405.358 224.601 405.358 222.201C405.358 210.681 397.358 204.361 385.358 204.361C372.398 204.361 363.278 213.241 363.278 225.641C363.278 238.361 371.438 246.601 386.158 246.601C394.318 246.601 399.518 244.201 404.398 240.841L398.558 232.281ZM376.638 223.081C377.278 217.161 380.638 213.961 385.118 213.961C389.198 213.961 392.238 216.841 392.558 221.241L376.638 223.081ZM375.758 197.881L380.718 202.681L398.718 191.481L390.398 183.081L375.758 197.881ZM413.372 231.721C413.372 243.561 418.892 246.601 428.332 246.601C434.092 246.601 438.812 244.921 441.452 243.641L439.372 235.721C437.452 236.521 435.612 236.841 433.292 236.841C428.412 236.841 427.132 234.201 427.132 229.721V212.921H439.212L440.012 204.201L427.132 205.721V191.721L413.372 194.761V206.521L407.772 207.321V212.921H413.372V231.721ZM446.441 245.561H460.121V215.081C464.361 215.081 469.481 215.401 473.401 216.201L475.561 204.601C474.521 204.441 473.321 204.361 472.281 204.361C467.401 204.361 462.441 205.401 458.841 208.121L446.441 204.361V245.561ZM480.903 245.561H494.663V204.361L480.903 206.281V245.561ZM487.783 200.681C491.783 200.681 495.223 197.561 495.223 193.081C495.223 188.521 491.783 185.561 487.783 185.561C483.623 185.561 480.423 188.521 480.423 193.081C480.423 197.561 483.623 200.681 487.783 200.681ZM536.761 232.281C533.081 234.921 529.801 236.201 525.561 236.201C520.681 236.201 515.881 234.361 515.081 228.121H542.921C543.321 226.281 543.561 224.601 543.561 222.201C543.561 210.681 535.561 204.361 523.561 204.361C510.601 204.361 501.481 213.241 501.481 225.641C501.481 238.361 509.641 246.601 524.361 246.601C532.521 246.601 537.721 244.201 542.601 240.841L536.761 232.281ZM514.841 223.081C515.481 217.161 518.841 213.961 523.321 213.961C527.401 213.961 530.441 216.841 530.761 221.241L514.841 223.081Z" fill="white"/>
<path d="M102.601 313.987L116.884 371.349C120.901 387.482 131.202 390.628 136.58 389.289C152.713 385.272 154.52 369.592 168.86 366.022C184.993 362.005 195.734 374.56 210.075 370.989C215.452 369.65 223.076 362.041 218.613 344.115L204.776 288.546L102.601 313.987ZM172.042 317.637C171.15 314.052 174.288 311.367 177.874 310.474C178.578 310.194 179.338 310.08 180.094 310.142C180.85 310.204 181.582 310.439 182.232 310.83C182.882 311.221 183.433 311.757 183.842 312.395C184.251 313.034 184.507 313.759 184.59 314.513C185.483 318.098 184.583 322.129 180.998 323.022C179.107 323.357 177.158 322.996 175.512 322.006C173.866 321.016 172.634 319.465 172.042 317.637ZM192.646 323.929C196.231 323.036 200.262 323.936 201.155 327.521C201.629 329.423 201.327 331.435 200.317 333.114C199.308 334.794 197.672 336.003 195.77 336.477C193.869 336.95 191.857 336.649 190.177 335.639C188.498 334.629 187.288 332.994 186.815 331.092C185.922 327.507 189.061 324.822 192.646 323.929ZM144.254 328.364L155.009 325.686L157.688 336.441L146.932 339.119L149.61 349.874L138.855 352.552L136.177 341.797L125.422 344.475L122.744 333.72L133.499 331.042L130.821 320.286L141.576 317.608L144.254 328.364Z" fill="white"/>
<path d="M584.645 98.915C586.127 96.9049 587.47 94.7964 588.666 92.6039C595.091 81.4322 596.814 68.1659 593.458 55.7234C590.101 43.281 581.939 32.6815 570.767 26.2569C559.596 19.8323 546.329 18.1087 533.887 21.4654C521.444 24.8221 510.845 32.984 504.42 44.1557C503.183 46.1939 502.093 48.3177 501.158 50.511L496.82 49.1925L480.056 91.2938L498.319 101.797L521.409 58.2375L506.673 52.5071C507.52 51.0342 508.242 49.0974 509.259 47.3301C521.455 26.1213 548.829 18.7365 570.038 30.9333C575.112 33.8414 579.562 37.7221 583.133 42.353C586.704 46.9839 589.327 52.2741 590.85 57.9202C592.373 63.5664 592.767 69.4576 592.009 75.2564C591.252 81.0551 589.357 86.6474 586.435 91.7127C585.418 93.4801 584.063 95.8366 582.922 97.14L567.951 85.0026L541.915 126.868L560.178 137.37L587.841 101.537L584.645 98.915Z" fill="white"/>
<path d="M62.8894 10.4296L10.781 28.7808C7.18736 30.0464 0 32.5776 3.16401 41.5618L37.3353 138.591C40.4993 147.575 47.6867 145.044 53.0772 143.146L105.186 124.795C114.17 121.631 114.068 115.607 111.537 108.42L79.2641 16.781C76.7329 9.59366 70.0768 7.89838 62.8894 10.4296ZM29.4838 30.273L52.8428 22.0466L54.1084 25.6402L30.7494 33.8667L29.4838 30.273ZM76.9673 130.693C75.5377 131.196 73.9665 131.111 72.5996 130.456C71.2327 129.802 70.1819 128.63 69.6784 127.201C69.1749 125.771 69.26 124.2 69.9149 122.833C70.5698 121.466 71.7409 120.415 73.1705 119.912C74.6002 119.408 76.1713 119.493 77.5383 120.148C78.9052 120.803 79.956 121.974 80.4595 123.404C80.963 124.834 80.8779 126.405 80.223 127.772C79.5681 129.139 78.397 130.189 76.9673 130.693ZM98.8575 106.826L44.9523 125.81L12.2498 44.4212L73.3424 22.9059L98.8575 106.826Z" fill="white"/>
<path d="M472.844 292.424L438.092 272.324L437.2 274.354L401.307 350.592L393.188 347.028C381.01 341.681 368.187 343.314 363.732 353.463C360.167 361.582 366.751 374.156 378.929 379.503C391.108 384.85 404.821 381.187 408.386 373.068L409.277 371.038L437.299 296.186L469.28 300.543L472.844 292.424Z" fill="white"/>
</svg>
