<svg width="119" height="119" viewBox="0 0 119 119" fill="none" xmlns="http://www.w3.org/2000/svg">
<circle cx="59.2593" cy="59.2593" r="59.2593" fill="white"/>
<path d="M96.7648 35.8157L86.7906 27.0502C86.4845 26.7796 86.0777 26.6419 85.6763 26.6704C85.2696 26.6973 84.8897 26.8841 84.6206 27.191L48.4439 68.3659L35.5806 51.3403C35.3353 51.0158 34.9701 50.8012 34.5664 50.7459C34.1634 50.6859 33.7521 50.7951 33.4275 51.0419L22.8328 59.0453C22.1553 59.5574 22.0207 60.5217 22.5329 61.1992L46.3508 92.7236C46.6291 93.0919 47.0597 93.3165 47.5211 93.3334C47.5396 93.3334 47.5588 93.3334 47.5773 93.3334C48.0186 93.3334 48.44 93.1442 48.733 92.8105L96.904 37.9857C97.4653 37.3482 97.403 36.3755 96.7648 35.8157Z" fill="#82D200"/>
</svg>
