<svg width="46" height="46" viewBox="0 0 46 46" fill="none" xmlns="http://www.w3.org/2000/svg">
<path fill-rule="evenodd" clip-rule="evenodd" d="M46 23C46 35.7025 35.7026 46 23 46C13.1392 46 4.72803 39.7947 1.45801 31.0761L21.8965 24.7656L21.8184 27.7273H20C17.2729 27.7273 15 29.0909 15 31.3636C15 33.1818 17.2729 35 20 35C22.7271 35 25 33.1818 25 31.3636V30.9091L24.6123 23.927L45.3447 17.5257C45.7729 19.2802 46 21.1136 46 23ZM44.0581 13.7365C40.4946 5.64725 32.4067 0 23 0C10.2974 0 0 10.2975 0 23C0 24.4417 0.132324 25.8524 0.38623 27.2206L22.0073 20.5449L22.2729 10.4546V10L30.4546 10.9091V12.7273L24.0908 14.5454L24.3833 19.8113L44.0581 13.7365Z" fill="white"/>
</svg>
