<svg width="119" height="119" viewBox="0 0 119 119" fill="none" xmlns="http://www.w3.org/2000/svg">
<circle cx="59.2593" cy="59.2593" r="59.2593" transform="rotate(-180 59.2593 59.2593)" fill="white"/>
<path d="M70.3179 60.0004L92.9247 37.3929C93.4674 36.8502 93.4674 35.9705 92.9247 35.4278L84.5728 27.0739C84.3123 26.8133 83.9579 26.6667 83.5903 26.6667C83.222 26.6667 82.8683 26.8133 82.6077 27.0739L59.9996 49.682L37.3914 27.0739C36.8703 26.5527 35.9475 26.5527 35.4263 27.0739L27.0738 35.4278C26.5311 35.9705 26.5311 36.8502 27.0738 37.3929L49.6812 60.0004L27.0738 82.6078C26.5311 83.1505 26.5311 84.0302 27.0738 84.5729L35.4263 92.9262C35.6869 93.1867 36.0406 93.3334 36.4089 93.3334C36.7772 93.3334 37.1309 93.1867 37.3914 92.9262L59.9996 70.318L82.6077 92.9262C82.8683 93.1867 83.222 93.3334 83.5903 93.3334C83.9579 93.3334 84.3123 93.1867 84.5728 92.9262L92.9254 84.5729C93.4681 84.0302 93.4681 83.1498 92.9254 82.6078L70.3179 60.0004Z" fill="#E10037"/>
</svg>
