<svg width="40" height="40" viewBox="0 0 40 40" fill="none" xmlns="http://www.w3.org/2000/svg">
<path d="M20 40C31.0457 40 40 31.0457 40 20C40 8.95431 31.0457 0 20 0C8.95431 0 0 8.95431 0 20C0 31.0457 8.95431 40 20 40Z" fill="white"/>
<path d="M21.0082 23.4844L21.1593 31H28.4483L28.2972 23.4844H21.0082Z" fill="#E10037"/>
<path d="M11.7176 31H19.0821L19.1954 23.4844H11.8686L11.7176 31Z" fill="#E10037"/>
<path d="M24.3695 13.8916C25.9179 13.4384 28.9392 12.4943 28.4483 12.3432C28.2972 12.3054 26.8621 12.4565 26.8621 12.4565L27.6174 11.5501C27.202 11.5123 26.1823 12.1544 25.2759 12.7964C25.6158 12.3054 25.9934 11.5878 25.9934 10.9458C25.9924 10.1649 25.6817 9.4162 25.1294 8.86399C24.5772 8.31177 23.8286 8.00107 23.0476 8C21.4992 8 20.2151 9.77504 20.064 11.2857C19.9507 9.77504 18.6667 8 17.1182 8C16.3373 8.00107 15.5886 8.31177 15.0364 8.86399C14.4842 9.4162 14.1735 10.1649 14.1724 10.9458C14.1724 11.5501 14.3235 12.1166 14.6256 12.5698C13.8325 12.0033 13.0016 11.5123 12.624 11.5501L13.3793 12.4565C13.3793 12.4565 11.9442 12.3054 11.7931 12.3432C11.2644 12.4943 14.5123 13.4762 15.9852 13.9294H11L11.4154 18.4236H11.9819L11.9064 21.445H19.2332L19.3465 13.9294H20.8949L21.0082 21.445H28.2217L28.1839 18.4236H28.7504L29.1658 13.9294C29.1658 13.9294 25.2759 13.8916 24.3695 13.8916ZM18.78 12.7586H17.1182C16.1363 12.7586 15.3432 11.9278 15.3432 10.9458C15.3432 10.475 15.5302 10.0236 15.8631 9.69067C16.196 9.35778 16.6475 9.17077 17.1182 9.17077C17.589 9.17077 18.0405 9.35778 18.3734 9.69067C18.7063 10.0236 18.8933 10.475 18.8933 10.9458L18.78 12.7586ZM21.2726 10.9458C21.2726 10.475 21.4596 10.0236 21.7925 9.69067C22.1254 9.35778 22.5768 9.17077 23.0476 9.17077C23.5184 9.17077 23.9699 9.35778 24.3028 9.69067C24.6356 10.0236 24.8227 10.475 24.8227 10.9458C24.8227 11.9278 24.0296 12.7586 23.0476 12.7586H21.4992L21.2726 10.9458Z" fill="#E10037"/>
</svg>
