<svg width="15" height="15" viewBox="0 0 15 15" fill="none" xmlns="http://www.w3.org/2000/svg">
<path d="M12.806 2.19436C9.87952 -0.731454 5.12031 -0.731454 2.19388 2.19436C-0.731293 5.12018 -0.731293 9.88062 2.19388 12.8064C3.6571 14.269 5.57865 15 7.50024 15C9.42182 15 11.3427 14.269 12.806 12.8064C15.7318 9.88065 15.7318 5.12018 12.806 2.19436ZM10.5949 9.71117C10.8393 9.95565 10.8393 10.3509 10.5949 10.5953C10.4729 10.7173 10.3129 10.7786 10.1528 10.7786C9.99269 10.7786 9.83259 10.7173 9.71066 10.5953L7.50021 8.38425L5.29038 10.5947C5.16783 10.7166 5.00773 10.7779 4.84828 10.7779C4.68821 10.7779 4.52811 10.7166 4.40617 10.5947C4.16169 10.3502 4.16169 9.95439 4.40617 9.71052L6.61601 7.50008L4.40556 5.28963C4.16107 5.04514 4.16107 4.64933 4.40556 4.40546C4.64943 4.16097 5.04525 4.16097 5.28973 4.40546L7.50018 6.6159L9.71063 4.40546C9.95511 4.16097 10.3503 4.16097 10.5948 4.40546C10.8393 4.64933 10.8393 5.04514 10.5948 5.28963L8.38435 7.50008L10.5949 9.71117Z" fill="#FF2144"/>
</svg>
