<svg width="15" height="15" viewBox="0 0 15 15" fill="none" xmlns="http://www.w3.org/2000/svg">
<path d="M12.8058 2.19436C9.87998 -0.731453 5.12017 -0.731453 2.19436 2.19436C-0.731453 5.11953 -0.731453 9.8806 2.19436 12.8058C3.65696 14.269 5.57851 15 7.50006 15C9.42161 15 11.3426 14.269 12.8058 12.8058C15.7316 9.8806 15.7316 5.11953 12.8058 2.19436ZM11.694 5.44092L7.31687 9.81808C7.19493 9.94001 7.03486 10.0013 6.87477 10.0013C6.7147 10.0013 6.5546 9.94001 6.43267 9.81808L3.93146 7.31687C3.68697 7.07238 3.68697 6.67718 3.93146 6.4327C4.17594 6.18821 4.57114 6.18821 4.81563 6.4327L6.87477 8.49184L10.8098 4.55678C11.0543 4.3123 11.4495 4.3123 11.694 4.55678C11.9385 4.80124 11.9385 5.19644 11.694 5.44092Z" fill="#82D200"/>
</svg>
